<svg width="180" height="40" viewBox="0 0 180 40" xmlns="http://www.w3.org/2000/svg" role="img" aria-label="Xirna">
  <defs>
    <linearGradient id="g" x1="0" y1="0" x2="1" y2="1">
      <stop offset="0%" stop-color="#ff7a00"/>
      <stop offset="100%" stop-color="#ff3d00"/>
    </linearGradient>
  </defs>
  <!-- Icon X -->
  <g transform="translate(5,6)">
    <path d="M0 0 L8 0 L13 7 L18 0 L26 0 L17 12 L26 24 L18 24 L13 17 L8 24 L0 24 L9 12 Z" fill="url(#g)"/>
  </g>
  <!-- Wordmark -->
  <g transform="translate(38,8)" fill="#111111">
    <path d="M0 0 h6 v24 h-6z"/>
    <path d="M14 8 q0 -8 10 -8 h1 q10 0 10 8 v8 q0 8 -10 8 h-1 q-10 0 -10 -8z m6 0 v8 q0 3 5 3 h1 q5 0 5 -3 v-8 q0 -3 -5 -3 h-1 q-5 0 -5 3z"/>
    <path d="M44 0 h6 v24 h-6z"/>
    <path d="M58 0 h6 v10 l8 -10 h7 l-8 10 9 14 h-7 l-6 -10 -3 4 v6 h-6z"/>
    <path d="M96 8 q0 -8 10 -8 h1 q10 0 10 8 v8 q0 8 -10 8 h-1 q-10 0 -10 -8z m6 0 v8 q0 3 5 3 h1 q5 0 5 -3 v-8 q0 -3 -5 -3 h-1 q-5 0 -5 3z"/>
  </g>
</svg>
